<svg xmlns:xlink="http://www.w3.org/1999/xlink" xmlns="http://www.w3.org/2000/svg" width="130" height="27" viewBox="0 0 130 27" fill="none">
  <path d="M39.5241 21.2161C41.7201 21.2161 43.5381 20.4241 44.7261 18.9661L42.8541 17.2381C42.0082 18.2281 40.9461 18.7321 39.6861 18.7321C37.3281 18.7321 35.6541 17.0761 35.6541 14.7001C35.6541 12.3241 37.3281 10.6681 39.6861 10.6681C40.9461 10.6681 42.0082 11.1721 42.8541 12.1441L44.7261 10.4161C43.5381 8.97608 41.7201 8.18408 39.5421 8.18408C35.6181 8.18408 32.7021 10.9021 32.7021 14.7001C32.7021 18.4981 35.6181 21.2161 39.5241 21.2161Z" fill="white"/>
  <path d="M49.1793 12.5941V11.3161H46.4973V21.0001H49.3053V16.4281C49.3053 14.5741 50.3313 13.7281 51.8793 13.7281C52.0953 13.7281 52.2753 13.7461 52.5093 13.7641V11.1721C51.0153 11.1721 49.8633 11.6581 49.1793 12.5941Z" fill="white"/>
  <path d="M61.4249 11.3161L58.6889 17.8861L55.9709 11.3161H53.0729L57.2669 21.0721L57.2309 21.1621C56.8529 22.0261 56.4209 22.3681 55.6469 22.3681C55.0889 22.3681 54.4949 22.1341 54.0629 21.7561L53.0369 23.7541C53.6669 24.3121 54.7469 24.6361 55.7369 24.6361C57.4829 24.6361 58.8149 23.9341 59.7509 21.5941L64.1249 11.3161H61.4249Z" fill="white"/>
  <path d="M70.9948 11.1721C69.6988 11.1721 68.6548 11.5861 67.9528 12.4321V11.3161H65.2708V24.4921H68.0788V19.9741C68.7988 20.7661 69.7888 21.1441 70.9948 21.1441C73.7128 21.1441 75.8188 19.2001 75.8188 16.1581C75.8188 13.1161 73.7128 11.1721 70.9948 11.1721ZM70.5088 18.8401C69.1048 18.8401 68.0428 17.8321 68.0428 16.1581C68.0428 14.4841 69.1048 13.4761 70.5088 13.4761C71.9128 13.4761 72.9748 14.4841 72.9748 16.1581C72.9748 17.8321 71.9128 18.8401 70.5088 18.8401Z" fill="white"/>
  <path d="M83.1885 18.5521C82.8825 18.7861 82.4685 18.9121 82.0545 18.9121C81.2985 18.9121 80.8485 18.4621 80.8485 17.6341V13.6921H83.2605V11.5321H80.8485V9.17408H78.0405V11.5321H76.5465V13.6921H78.0405V17.6701C78.0405 19.9741 79.3725 21.1441 81.6585 21.1441C82.5225 21.1441 83.3685 20.9461 83.9445 20.5321L83.1885 18.5521Z" fill="white"/>
  <path d="M89.8299 21.1441C92.9079 21.1441 95.1399 19.0741 95.1399 16.1581C95.1399 13.2421 92.9079 11.1721 89.8299 11.1721C86.7519 11.1721 84.5019 13.2421 84.5019 16.1581C84.5019 19.0741 86.7519 21.1441 89.8299 21.1441ZM89.8299 18.8401C88.4259 18.8401 87.3459 17.8321 87.3459 16.1581C87.3459 14.4841 88.4259 13.4761 89.8299 13.4761C91.2339 13.4761 92.2959 14.4841 92.2959 16.1581C92.2959 17.8321 91.2339 18.8401 89.8299 18.8401Z" fill="white"/>
  <path d="M97.2149 21.0001H106.449V18.6241H100.131V8.40008H97.2149V21.0001Z" fill="white"/>
  <path d="M117.296 16.1941C117.296 13.0801 115.1 11.1721 112.256 11.1721C109.304 11.1721 107.09 13.2601 107.09 16.1581C107.09 19.0381 109.268 21.1441 112.616 21.1441C114.362 21.1441 115.712 20.6041 116.612 19.5781L115.118 17.9581C114.452 18.5881 113.714 18.8941 112.688 18.8941C111.212 18.8941 110.186 18.1561 109.916 16.9501H117.242C117.26 16.7161 117.296 16.4101 117.296 16.1941ZM112.274 13.2961C113.534 13.2961 114.452 14.0881 114.65 15.3121H109.88C110.078 14.0701 110.996 13.2961 112.274 13.2961Z" fill="white"/>
  <path d="M123.773 21.1441C126.851 21.1441 129.083 19.0741 129.083 16.1581C129.083 13.2421 126.851 11.1721 123.773 11.1721C120.695 11.1721 118.445 13.2421 118.445 16.1581C118.445 19.0741 120.695 21.1441 123.773 21.1441ZM123.773 18.8401C122.369 18.8401 121.289 17.8321 121.289 16.1581C121.289 14.4841 122.369 13.4761 123.773 13.4761C125.177 13.4761 126.239 14.4841 126.239 16.1581C126.239 17.8321 125.177 18.8401 123.773 18.8401Z" fill="white"/>
  <path d="M18.0716 3.897C18.0977 2.13594 18.0977 1.34259 18.0977 1.34259L15.8669 1.88311L14.8861 0.427188L13.4713 1.37746L13.2803 1.16823L12.2387 0L11.0062 1.37746L9.58265 0.427188L8.61049 1.88311L6.46655 1.34259C6.46655 1.34259 6.42315 2.24056 6.39711 3.90571C2.58662 5.98063 0 10.0433 0 14.7075C0 21.4902 5.47704 27 12.2387 27C18.9917 27 24.4774 21.4989 24.4774 14.7075C24.4687 10.0345 21.8821 5.98063 18.0716 3.897Z" fill="#F7F7F7"/>
  <path d="M18.0716 3.897C18.0977 2.13594 18.0977 1.34259 18.0977 1.34259L15.8669 1.88311L14.8861 0.427188L13.4713 1.37746L13.2803 1.16823L12.2387 0L11.0062 1.37746L9.58265 0.427188L8.61049 1.88311L6.46655 1.34259C6.46655 1.34259 6.42315 2.24056 6.39711 3.90571C2.58662 5.98063 0 10.0433 0 14.7075C0 21.4902 5.47704 27 12.2387 27C18.9917 27 24.4774 21.4989 24.4774 14.7075C24.4687 10.0345 21.8821 5.98063 18.0716 3.897Z" fill="url(#paint0_linear)"/>
  <path d="M18.0716 3.897C18.0977 2.13594 18.0977 1.34259 18.0977 1.34259L15.8669 1.88311L14.8861 0.427188L13.4713 1.37746L13.2803 1.16823L12.2387 0L11.0062 1.37746L9.58265 0.427188L8.61049 1.88311L6.46655 1.34259C6.46655 1.34259 6.42315 2.24056 6.39711 3.90571C2.58662 5.98063 0 10.0433 0 14.7075C0 21.4902 5.47704 27 12.2387 27C18.9917 27 24.4774 21.4989 24.4774 14.7075C24.4687 10.0345 21.8821 5.98063 18.0716 3.897Z" fill="url(#paint1_linear)"/>
  <path d="M17.3598 5.24654C16.9692 5.10705 16.7348 5.0373 16.7348 5.0373L16.7435 4.94141L16.7522 4.86294L16.8563 2.84906L15.2939 3.56394L14.6343 2.13417L13.4364 3.24137L12.2386 1.88135L11.0581 3.21522L9.8603 2.10802L9.20063 3.53779L7.63824 2.8229L7.71636 4.30498L7.76844 4.97628C7.76844 4.97628 7.75976 4.97628 7.75976 4.985V5.02859C7.75976 5.02859 7.71636 5.03731 7.62956 5.04602C4.07079 6.78965 1.62305 10.4513 1.62305 14.697C1.62305 16.3534 1.99628 17.9314 2.66464 19.335L4.52214 17.4345C4.52214 17.4345 4.79122 20.7561 6.73553 22.3951C7.64692 21.3576 7.64692 21.3576 7.64692 21.3576C7.64692 21.3576 8.15036 22.1335 9.20931 22.7264C9.20931 22.7264 9.20931 22.7264 9.20931 22.7176C9.20931 21.0438 10.5634 19.675 12.2386 19.675C13.9052 19.675 15.2679 21.035 15.2679 22.7176C15.2679 22.7176 15.2679 22.7176 15.2679 22.7264C16.3269 22.1335 16.8303 21.3576 16.8303 21.3576C16.8303 21.3576 16.8303 21.3576 17.7417 22.3951C19.6947 20.7648 19.9551 17.4345 19.9551 17.4345L21.9341 19.3437C22.6111 17.9401 22.9844 16.3621 22.9844 14.697C22.9844 10.6082 20.7102 7.05119 17.3598 5.24654Z" fill="#11101B"/>
  <path fill-rule="evenodd" clip-rule="evenodd" d="M10.1296 5.80743C10.7893 5.94692 12.2128 6.05154 12.2128 6.05154C12.2128 6.05154 13.1936 6.02539 14.0703 5.82487C15.0685 5.58948 17.0475 8.03055 17.0475 8.03055L13.9748 8.62338L13.9662 11.5527C13.9662 11.5527 14.0009 11.7793 13.7231 11.9711C12.8725 12.5378 12.2475 12.4419 12.2475 12.4419C12.0667 12.4243 11.8291 12.3339 11.5791 12.2388C11.0849 12.0509 10.5424 11.8445 10.2945 12.1455C9.69702 12.9067 10.7206 13.4712 11.3316 13.8082C11.4484 13.8726 11.5501 13.9287 11.6226 13.9763C12.0739 14.2814 11.4316 14.7522 9.97339 14.8743C7.81429 15.0077 8.80133 13.0585 9.11884 12.4314C9.13321 12.403 9.1462 12.3774 9.15747 12.3547C9.41787 11.8316 9.53939 11.5178 9.08803 11.4132C7.17845 10.9773 6.78785 10.2624 6.88333 9.0157C9.39183 9.47776 10.2425 9.63468 10.2425 9.63468L10.2338 8.56236C10.2338 8.56236 9.10539 8.28338 7.17845 7.98696C7.85548 6.71412 9.46995 5.66794 10.1296 5.80743ZM17.4646 9.18164L14.7305 9.86165C14.7305 9.86165 15.4769 10.6986 16.5272 10.4458C17.5428 10.2017 17.4646 9.18164 17.4646 9.18164ZM12.716 13.947C13.0806 13.8598 14.7211 13.049 14.7211 13.049C16.0665 12.5085 16.0404 14.8101 14.5562 14.7927C13.0719 14.7752 12.3515 14.0342 12.716 13.947ZM13.9484 16.9907C13.9484 16.9907 13.9658 16.2758 13.7401 16.084C13.4399 15.6704 12.275 15.5038 12.1303 15.4831L12.1303 15.4831L12.1256 15.4824H12.1169H12.1083L12.096 15.4842C11.9227 15.5086 10.7893 15.6684 10.4938 16.084C10.2681 16.2758 10.2855 16.9907 10.2855 16.9907V17.6358C10.2855 17.6358 10.7021 18.0804 12.1169 18.0804C13.5318 18.0804 13.9397 17.6358 13.9397 17.6358L13.9484 16.9907Z" fill="#F7F7F7"/>
  <path fill-rule="evenodd" clip-rule="evenodd" d="M10.1296 5.80743C10.7893 5.94692 12.2128 6.05154 12.2128 6.05154C12.2128 6.05154 13.1936 6.02539 14.0703 5.82487C15.0685 5.58948 17.0475 8.03055 17.0475 8.03055L13.9748 8.62338L13.9662 11.5527C13.9662 11.5527 14.0009 11.7793 13.7231 11.9711C12.8725 12.5378 12.2475 12.4419 12.2475 12.4419C12.0667 12.4243 11.8291 12.3339 11.5791 12.2388C11.0849 12.0509 10.5424 11.8445 10.2945 12.1455C9.69702 12.9067 10.7206 13.4712 11.3316 13.8082C11.4484 13.8726 11.5501 13.9287 11.6226 13.9763C12.0739 14.2814 11.4316 14.7522 9.97339 14.8743C7.81429 15.0077 8.80133 13.0585 9.11884 12.4314C9.13321 12.403 9.1462 12.3774 9.15747 12.3547C9.41787 11.8316 9.53939 11.5178 9.08803 11.4132C7.17845 10.9773 6.78785 10.2624 6.88333 9.0157C9.39183 9.47776 10.2425 9.63468 10.2425 9.63468L10.2338 8.56236C10.2338 8.56236 9.10539 8.28338 7.17845 7.98696C7.85548 6.71412 9.46995 5.66794 10.1296 5.80743ZM17.4646 9.18164L14.7305 9.86165C14.7305 9.86165 15.4769 10.6986 16.5272 10.4458C17.5428 10.2017 17.4646 9.18164 17.4646 9.18164ZM12.716 13.947C13.0806 13.8598 14.7211 13.049 14.7211 13.049C16.0665 12.5085 16.0404 14.8101 14.5562 14.7927C13.0719 14.7752 12.3515 14.0342 12.716 13.947ZM13.9484 16.9907C13.9484 16.9907 13.9658 16.2758 13.7401 16.084C13.4399 15.6704 12.275 15.5038 12.1303 15.4831L12.1303 15.4831L12.1256 15.4824H12.1169H12.1083L12.096 15.4842C11.9227 15.5086 10.7893 15.6684 10.4938 16.084C10.2681 16.2758 10.2855 16.9907 10.2855 16.9907V17.6358C10.2855 17.6358 10.7021 18.0804 12.1169 18.0804C13.5318 18.0804 13.9397 17.6358 13.9397 17.6358L13.9484 16.9907Z" fill="url(#paint2_linear)"/>
  <path fill-rule="evenodd" clip-rule="evenodd" d="M10.1296 5.80743C10.7893 5.94692 12.2128 6.05154 12.2128 6.05154C12.2128 6.05154 13.1936 6.02539 14.0703 5.82487C15.0685 5.58948 17.0475 8.03055 17.0475 8.03055L13.9748 8.62338L13.9662 11.5527C13.9662 11.5527 14.0009 11.7793 13.7231 11.9711C12.8725 12.5378 12.2475 12.4419 12.2475 12.4419C12.0667 12.4243 11.8291 12.3339 11.5791 12.2388C11.0849 12.0509 10.5424 11.8445 10.2945 12.1455C9.69702 12.9067 10.7206 13.4712 11.3316 13.8082C11.4484 13.8726 11.5501 13.9287 11.6226 13.9763C12.0739 14.2814 11.4316 14.7522 9.97339 14.8743C7.81429 15.0077 8.80133 13.0585 9.11884 12.4314C9.13321 12.403 9.1462 12.3774 9.15747 12.3547C9.41787 11.8316 9.53939 11.5178 9.08803 11.4132C7.17845 10.9773 6.78785 10.2624 6.88333 9.0157C9.39183 9.47776 10.2425 9.63468 10.2425 9.63468L10.2338 8.56236C10.2338 8.56236 9.10539 8.28338 7.17845 7.98696C7.85548 6.71412 9.46995 5.66794 10.1296 5.80743ZM17.4646 9.18164L14.7305 9.86165C14.7305 9.86165 15.4769 10.6986 16.5272 10.4458C17.5428 10.2017 17.4646 9.18164 17.4646 9.18164ZM12.716 13.947C13.0806 13.8598 14.7211 13.049 14.7211 13.049C16.0665 12.5085 16.0404 14.8101 14.5562 14.7927C13.0719 14.7752 12.3515 14.0342 12.716 13.947ZM13.9484 16.9907C13.9484 16.9907 13.9658 16.2758 13.7401 16.084C13.4399 15.6704 12.275 15.5038 12.1303 15.4831L12.1303 15.4831L12.1256 15.4824H12.1169H12.1083L12.096 15.4842C11.9227 15.5086 10.7893 15.6684 10.4938 16.084C10.2681 16.2758 10.2855 16.9907 10.2855 16.9907V17.6358C10.2855 17.6358 10.7021 18.0804 12.1169 18.0804C13.5318 18.0804 13.9397 17.6358 13.9397 17.6358L13.9484 16.9907Z" fill="url(#paint3_linear)"/>
  <path d="M12.4126 22.564C12.4734 22.5553 12.5255 22.5379 12.5602 22.503C12.5949 22.4681 12.6123 22.4158 12.6123 22.3635C12.6123 22.3112 12.5949 22.2589 12.5689 22.224C12.5341 22.1892 12.4907 22.1717 12.43 22.163C12.3953 22.163 12.2911 22.1543 12.1175 22.1543H11.9092V22.5728H12.1522C12.2824 22.5728 12.3779 22.564 12.4126 22.564Z" fill="black"/>
  <path d="M12.5255 22.8938C12.4734 22.8764 12.3692 22.8677 12.2043 22.8677H11.9092V23.3559H12.2477C12.3779 23.3559 12.4647 23.3559 12.4994 23.3472C12.5515 23.3385 12.5949 23.3123 12.6296 23.2774C12.6643 23.2426 12.6817 23.1902 12.6817 23.1205C12.6817 23.0682 12.6643 23.0159 12.6383 22.981C12.6123 22.9461 12.5689 22.9113 12.5255 22.8938Z" fill="black"/>
  <path d="M12.2388 20.6509C11.1017 20.6509 10.1816 21.575 10.1816 22.7171C10.1816 23.8591 11.1017 24.7833 12.2388 24.7833C13.3759 24.7833 14.2959 23.8591 14.2959 22.7171C14.2959 21.575 13.3759 20.6509 12.2388 20.6509ZM12.9939 23.3796C12.9592 23.4581 12.9071 23.5191 12.8377 23.5714C12.7683 23.615 12.6901 23.6499 12.5947 23.6586C12.586 23.6586 12.5686 23.6586 12.5426 23.6586V23.7545C12.5426 23.7981 12.5079 23.833 12.4645 23.833H12.3169C12.2735 23.833 12.2388 23.7981 12.2388 23.7545V23.6673C12.2127 23.6673 12.178 23.6673 12.1433 23.6673H12.0825V23.7545C12.0825 23.7981 12.0478 23.833 12.0044 23.833H11.8569C11.8135 23.833 11.7787 23.7981 11.7787 23.7545V23.6673H11.527V21.8453H11.7787V21.7494C11.7787 21.7058 11.8135 21.6709 11.8569 21.6709H12.0044C12.0478 21.6709 12.0825 21.7058 12.0825 21.7494V21.8453H12.2388V21.7494C12.2388 21.7058 12.2735 21.6709 12.3169 21.6709H12.4645C12.5079 21.6709 12.5426 21.7058 12.5426 21.7494V21.8627C12.5599 21.8627 12.5686 21.8627 12.5773 21.8714C12.6467 21.8801 12.7075 21.9063 12.7683 21.9499C12.829 21.9935 12.8724 22.0371 12.9071 22.0981C12.9419 22.1591 12.9592 22.2289 12.9592 22.3073C12.9592 22.3945 12.9332 22.473 12.8898 22.5427C12.8464 22.6125 12.7856 22.6648 12.7075 22.6996C12.8203 22.7345 12.9071 22.7868 12.9592 22.8653C13.0113 22.9437 13.046 23.0309 13.046 23.1355C13.0547 23.214 13.0373 23.3012 12.9939 23.3796Z" fill="#11101B"/>
  <defs>
    <linearGradient id="paint0_linear" x1="3.89413" y1="5.30419e-07" x2="30.626" y2="18.9223" gradientUnits="userSpaceOnUse">
      <stop stop-color="#FCC029"/>
      <stop offset="1" stop-color="#FD9C43"/>
    </linearGradient>
    <linearGradient id="paint1_linear" x1="18.871" y1="-4.4943" x2="2.53531" y2="24.0734" gradientUnits="userSpaceOnUse">
      <stop stop-color="#D3D7FF"/>
      <stop offset="1" stop-color="#959DE8"/>
    </linearGradient>
    <linearGradient id="paint2_linear" x1="8.48925" y1="5.79492" x2="17.9423" y2="14.0626" gradientUnits="userSpaceOnUse">
      <stop stop-color="#FCC029"/>
      <stop offset="1" stop-color="#FD9C43"/>
    </linearGradient>
    <linearGradient id="paint3_linear" x1="14.7168" y1="4.28275" x2="9.85562" y2="14.7884" gradientUnits="userSpaceOnUse">
      <stop stop-color="#D3D7FF"/>
      <stop offset="1" stop-color="#959DE8"/>
    </linearGradient>
  </defs>
</svg>